<svg id="Layer_1" data-name="Layer 1" xmlns="http://www.w3.org/2000/svg" viewBox="0 0 871.85 277.37"><defs><style>.cls-1{fill:#083452;}.cls-2{fill:#f7941d;}.cls-3{fill:#fff;}.cls-4{fill:none;stroke:#083452;stroke-linecap:round;stroke-miterlimit:10;stroke-width:8px;}</style></defs><title>Artboard 1</title><path class="cls-1" d="M299.37,53.65a5.5,5.5,0,0,1,1.75-4.14,5.76,5.76,0,0,1,4.14-1.68h24.59a43.31,43.31,0,0,1,11.68,1.57,44.65,44.65,0,0,1,31.1,30.83,42.81,42.81,0,0,1,0,23.26,43.24,43.24,0,0,1-4.52,10.41,44.54,44.54,0,0,1-7,8.83,44.45,44.45,0,0,1-31.27,12.78H305.26a5.76,5.76,0,0,1-4.14-1.68,5.5,5.5,0,0,1-1.75-4.14Zm11.85,6v64h18.84A31,31,0,0,0,342.83,121a33.61,33.61,0,0,0,10.28-7,32.19,32.19,0,0,0,6.81-10.14,29.85,29.85,0,0,0,2.47-11.92,30.5,30.5,0,0,0-2.47-12,33.25,33.25,0,0,0-17.09-17.5,30.29,30.29,0,0,0-12.77-2.71Z"/><path class="cls-1" d="M442.6,117H400.41l-6.31,15a5.42,5.42,0,0,1-1.37,2,6.14,6.14,0,0,1-2,1.24,5.89,5.89,0,0,1-4.62-.21,5,5,0,0,1-3.12-3.18,6.2,6.2,0,0,1,.31-4.56L416,51.46a5.51,5.51,0,0,1,5.42-3.63,5.72,5.72,0,0,1,3.18.92,6,6,0,0,1,2.16,2.64l32.81,75.83a6.61,6.61,0,0,1,.31,4.52,4.83,4.83,0,0,1-3,3.22,5.81,5.81,0,0,1-4.59.17A5.72,5.72,0,0,1,449,132Zm-37.4-11.79h32.47L421.5,66.74Z"/><path class="cls-1" d="M497.06,59.68v70a5.81,5.81,0,0,1-.45,2.29,5.53,5.53,0,0,1-1.26,1.85,5.85,5.85,0,0,1-1.92,1.23,6.08,6.08,0,0,1-2.33.45A5.58,5.58,0,0,1,487,133.8a5.65,5.65,0,0,1-1.67-4.11v-70H462.19a5.46,5.46,0,0,1-2.29-.48A6.31,6.31,0,0,1,458,57.9,5.76,5.76,0,0,1,456.75,56a5.86,5.86,0,0,1-.45-2.3,5.84,5.84,0,0,1,5.89-5.89h57.95a5.6,5.6,0,0,1,4.18,1.75A5.78,5.78,0,0,1,526,53.79a5.84,5.84,0,0,1-5.89,5.89Z"/><path class="cls-1" d="M582.34,117h-42.2l-6.3,15a5.54,5.54,0,0,1-1.37,2,6.14,6.14,0,0,1-2,1.24,5.89,5.89,0,0,1-4.62-.21,5,5,0,0,1-3.12-3.18,6.2,6.2,0,0,1,.31-4.56l32.67-75.76a5.51,5.51,0,0,1,5.41-3.63,5.73,5.73,0,0,1,3.19.92,6,6,0,0,1,2.16,2.64l32.81,75.83a6.61,6.61,0,0,1,.31,4.52,4.83,4.83,0,0,1-3,3.22,5.81,5.81,0,0,1-4.59.17,5.69,5.69,0,0,1-3.36-3.18Zm-37.4-11.79h32.47L561.24,66.74Z"/><path class="cls-1" d="M370.4,158.43a5.46,5.46,0,0,1,1.79,4.08,6,6,0,0,1-3.7,5.41,5.88,5.88,0,0,1-2.23.45A6.21,6.21,0,0,1,364,168a5.15,5.15,0,0,1-1.91-1.23,32.41,32.41,0,0,0-10.93-7.33,33.16,33.16,0,0,0-12.43-2.4,31.46,31.46,0,0,0-12.64,2.57,33.59,33.59,0,0,0-10.38,7,32.6,32.6,0,0,0-7,10.38,33,33,0,0,0-.1,25.31,33.3,33.3,0,0,0,6.81,10.44,32.75,32.75,0,0,0,10.28,7.2,30.89,30.89,0,0,0,12.84,2.67,32.81,32.81,0,0,0,12.4-2.23,32.34,32.34,0,0,0,11-7.29,5.43,5.43,0,0,1,1.92-1.24,6.36,6.36,0,0,1,2.22-.41,6.83,6.83,0,0,1,2.23.38,5,5,0,0,1,1.92,1.2,5.22,5.22,0,0,1,1.33,1.95,6.07,6.07,0,0,1,.45,2.26,5.5,5.5,0,0,1-.45,2.19,5.85,5.85,0,0,1-1.26,1.89,43,43,0,0,1-14.83,9.93,45.7,45.7,0,0,1-16.89,3.22,43,43,0,0,1-17.23-3.49,44.54,44.54,0,0,1-14-9.56,45.54,45.54,0,0,1-9.49-14.18,44.5,44.5,0,0,1-2-28.77,46.05,46.05,0,0,1,4.28-10.55,45.08,45.08,0,0,1,6.75-9.14,42.87,42.87,0,0,1,8.93-7.2,45.1,45.1,0,0,1,10.76-4.69,44.73,44.73,0,0,1,29.08,1.65A44.6,44.6,0,0,1,370.4,158.43Z"/><path class="cls-1" d="M442.67,215h-42.2l-6.3,15a5.54,5.54,0,0,1-1.37,2,6.14,6.14,0,0,1-1.95,1.24,5.89,5.89,0,0,1-4.62-.21,5,5,0,0,1-3.12-3.18,6.2,6.2,0,0,1,.31-4.56l32.67-75.76a5.51,5.51,0,0,1,5.41-3.63,5.73,5.73,0,0,1,3.19.92,6,6,0,0,1,2.16,2.64l32.81,75.83a6.61,6.61,0,0,1,.31,4.52,4.83,4.83,0,0,1-3,3.22,5.81,5.81,0,0,1-4.59.17A5.69,5.69,0,0,1,449,230Zm-37.4-11.79h32.47l-16.17-38.43Z"/><path class="cls-1" d="M497.13,157.68v70a5.81,5.81,0,0,1-.45,2.29,5.41,5.41,0,0,1-1.27,1.85,5.7,5.7,0,0,1-1.91,1.23,6.12,6.12,0,0,1-2.33.45A5.58,5.58,0,0,1,487,231.8a5.65,5.65,0,0,1-1.68-4.11v-70H462.26a5.54,5.54,0,0,1-2.3-.48,6.4,6.4,0,0,1-1.88-1.3,6,6,0,0,1-1.27-1.88,6,6,0,0,1-.44-2.3,5.84,5.84,0,0,1,5.89-5.89h58a5.6,5.6,0,0,1,4.18,1.75,5.78,5.78,0,0,1,1.71,4.21,5.84,5.84,0,0,1-5.89,5.89Z"/><path class="cls-1" d="M582.41,215h-42.2l-6.3,15a5.54,5.54,0,0,1-1.37,2,6.14,6.14,0,0,1-1.95,1.24,5.69,5.69,0,0,1-2.26.37A5.82,5.82,0,0,1,526,233a5,5,0,0,1-3.11-3.18,6.2,6.2,0,0,1,.31-4.56l32.67-75.76a5.5,5.5,0,0,1,5.41-3.63,5.73,5.73,0,0,1,3.19.92,6,6,0,0,1,2.16,2.64l32.81,75.83a6.61,6.61,0,0,1,.31,4.52,4.83,4.83,0,0,1-3,3.22,5.81,5.81,0,0,1-4.59.17,5.66,5.66,0,0,1-3.36-3.18ZM545,203.16h32.47l-16.17-38.43Z"/><path class="cls-1" d="M626.86,221.66l41.79.07a5.46,5.46,0,0,1,2.29.48,6.18,6.18,0,0,1,1.85,1.26,5.84,5.84,0,0,1,1.24,1.85,6,6,0,0,1,.44,2.3A6.27,6.27,0,0,1,674,230a5.55,5.55,0,0,1-1.24,1.88,5.45,5.45,0,0,1-1.85,1.23,5.78,5.78,0,0,1-2.29.45h-48.5a5.77,5.77,0,0,1-3.66-1.88,5.61,5.61,0,0,1-1.48-3.94v-76a5.75,5.75,0,0,1,.48-2.33,6.11,6.11,0,0,1,1.27-1.88,5.73,5.73,0,0,1,1.85-1.24,6,6,0,0,1,2.3-.44,5.87,5.87,0,0,1,4.21,1.68,5.6,5.6,0,0,1,1.74,4.21Z"/><path class="cls-1" d="M722.15,145.14A43.41,43.41,0,0,1,734,146.75a46.54,46.54,0,0,1,10.65,4.49,43,43,0,0,1,9,7,45.83,45.83,0,0,1,7,9,44.62,44.62,0,0,1,4.52,10.65,43.8,43.8,0,0,1,1.61,11.89,42.9,42.9,0,0,1-3.53,17.33,45.06,45.06,0,0,1-23.77,23.7,43.42,43.42,0,0,1-17.36,3.49,44.64,44.64,0,0,1-11.89-1.57,43.75,43.75,0,0,1-10.65-4.49,44.26,44.26,0,0,1-9-7,44.47,44.47,0,0,1-11.37-19.62,45,45,0,0,1,4.45-34.39,45.48,45.48,0,0,1,6.92-9,42.89,42.89,0,0,1,9-7,45.94,45.94,0,0,1,10.62-4.49A43.65,43.65,0,0,1,722.15,145.14Zm0,11.85a31.87,31.87,0,0,0-12.74,2.57A32.65,32.65,0,0,0,699,166.62a33.86,33.86,0,0,0-7,10.44,33.06,33.06,0,0,0,0,25.56A32.69,32.69,0,0,0,709.41,220a32.94,32.94,0,0,0,25.51,0,33.16,33.16,0,0,0,10.45-7,32.55,32.55,0,0,0,7-10.37,33.06,33.06,0,0,0,0-25.56,33.43,33.43,0,0,0-7-10.44,32.85,32.85,0,0,0-10.45-7.06A32.09,32.09,0,0,0,722.15,157Z"/><path class="cls-1" d="M856.61,158.43a5.63,5.63,0,0,1,0,8.22,5.79,5.79,0,0,1-4.11,1.78,5.46,5.46,0,0,1-4.18-1.71,34.09,34.09,0,0,0-11-7.26A32.8,32.8,0,0,0,824.9,157a31.43,31.43,0,0,0-12.5,2.54A32.77,32.77,0,0,0,795,176.89a33.14,33.14,0,0,0-.13,25.42,32.78,32.78,0,0,0,17.09,17.57,30.7,30.7,0,0,0,12.77,2.67,37.69,37.69,0,0,0,11.65-1.82,30.58,30.58,0,0,0,10.55-6.06V202.14H833.32a5.5,5.5,0,0,1-2.29-.48,6,6,0,0,1-3.53-5.48,5.65,5.65,0,0,1,1.68-4.11,5.58,5.58,0,0,1,4.14-1.72h19.39A6.09,6.09,0,0,1,857,192a5.42,5.42,0,0,1,1.78,4.18v21a5.38,5.38,0,0,1-.54,2.53,9.72,9.72,0,0,1-1.44,2,48.81,48.81,0,0,1-15.65,9.73,47.13,47.13,0,0,1-16.82,2.94,41.24,41.24,0,0,1-11.51-1.61,44.68,44.68,0,0,1-10.41-4.49,44,44,0,0,1-8.91-6.95,44.68,44.68,0,0,1-6.91-9,45.39,45.39,0,0,1-4.49-10.58,43.09,43.09,0,0,1-1.61-11.82,44.73,44.73,0,0,1,1.54-11.78,44.81,44.81,0,0,1,11.23-19.73,43.88,43.88,0,0,1,19.56-11.61A45.36,45.36,0,0,1,842,148.5,46.09,46.09,0,0,1,856.61,158.43Z"/><path class="cls-2" d="M127.05,101.54c-27.78,0-53.74-4.44-73.08-12.49C35.79,81.48,25.36,71.29,25.36,61.1c0-21.55,44.67-38.44,101.69-38.44S228.74,39.55,228.74,61.1c0,10.19-10.43,20.38-28.61,27.95C180.78,97.1,154.83,101.54,127.05,101.54Z"/><path class="cls-3" d="M127.05,25.66c27.76,0,53.34,4,72.05,11.31,16.93,6.6,26.64,15.4,26.64,24.13C225.74,70,216,79.2,199,86.28c-19,7.91-44.54,12.26-71.93,12.26S74.11,94.19,55.12,86.28C38.11,79.2,28.36,70,28.36,61.1,28.36,52.37,38.07,43.57,55,37c18.7-7.29,44.29-11.31,72.05-11.31m0-6C68.68,19.66,22.36,37.11,22.36,61.1s46.32,43.44,104.69,43.44S231.74,85.09,231.74,61.1,185.42,19.66,127.05,19.66Z"/><path class="cls-4" d="M236.12,219.62c0,25.55-48.83,46.25-109.07,46.25S18,245.17,18,219.62"/><path class="cls-4" d="M235,173.67c-7.56,22.41-53,39.63-108,39.63-37.21,0-70.07-7.9-89.75-20"/><path class="cls-4" d="M236.12,167.05a20.58,20.58,0,0,1-1.11,6.62"/><path class="cls-4" d="M37.3,193.34C25.12,185.87,18,176.82,18,167.05"/><path class="cls-4" d="M236.12,114.48c0,9.58-6.87,18.48-18.63,25.86"/><path class="cls-4" d="M214.38,142.19c-19.89,11.26-51.61,18.54-87.33,18.54C66.81,160.73,18,140,18,114.48"/><path class="cls-4" d="M217.49,140.34c-1,.63-2,1.25-3.11,1.85"/><path class="cls-4" d="M217.49,87.77c-19.6,12.3-52.79,20.39-90.44,20.39s-70.84-8.09-90.44-20.39"/><path class="cls-4" d="M106.78,16.46c6.57-.53,13.34-.8,20.27-.8,60.24,0,109.07,20.71,109.07,46.25,0,9.58-6.87,18.48-18.63,25.86"/><path class="cls-4" d="M36.61,87.77C24.85,80.39,18,71.49,18,61.91a20.89,20.89,0,0,1,1.7-8.18"/><line class="cls-4" x1="236.06" y1="68.23" x2="236.12" y2="114.48"/><line class="cls-4" x1="236.12" y1="61.91" x2="236.06" y2="68.23"/><line class="cls-4" x1="236.12" y1="167.05" x2="236.12" y2="222.86"/><line class="cls-4" x1="17.98" y1="114.48" x2="17.98" y2="167.05"/></svg>