<svg id="Layer_1" data-name="Layer 1" xmlns="http://www.w3.org/2000/svg" viewBox="0 0 425.2 255.12"><defs><style>.cls-1{fill:#00a4e2;}.cls-2{fill:#e41f18;}.cls-3{fill:#5f5e5e;}.cls-4{fill:none;stroke:#5f5e5e;stroke-miterlimit:3.86;stroke-width:0.77px;}</style></defs><title>LCSB_kurz_uni_extern_def</title><path class="cls-1" d="M158.62,89.72a6.18,6.18,0,0,1-5.55-3.46h-.71v69.81a6.24,6.24,0,0,0,12.48,0V86.26h-.7a6.13,6.13,0,0,1-5.52,3.46"/><path class="cls-2" d="M113.74,105.14a6.12,6.12,0,0,1-5.53-3.45h-.71v54.38a6.23,6.23,0,1,0,12.46,0V101.69h-.7a6.13,6.13,0,0,1-5.52,3.45"/><path class="cls-2" d="M107.49,92.61a6.25,6.25,0,1,1,6.25,6.24,6.25,6.25,0,0,1-6.25-6.24"/><path class="cls-2" d="M39.92,162.3h0a6.22,6.22,0,0,1-6.22-6.23V107.91a6.24,6.24,0,0,1,12.47,0V162.3H39.92"/><path class="cls-2" d="M49.53,162.3h0V107.91a6.23,6.23,0,0,1,12.46,0V162.3h0c-3,0-3.63-3.41-3.63-6.75h0c0,3.43-2.78,6.75-6.23,6.75H49.54"/><path class="cls-2" d="M92.71,101.69h0a6.24,6.24,0,0,1,6.22,6.23v48.16a6.24,6.24,0,0,1-12.47,0V101.69h6.25"/><path class="cls-2" d="M83.09,101.69h0v54.39a6.24,6.24,0,0,1-12.47,0V101.69h0c2.95,0,3.64,3.42,3.64,6.77h0c0-3.45,2.8-6.77,6.25-6.77h2.6"/><path class="cls-1" d="M179.69,162.3h0a6.23,6.23,0,0,1-6.23-6.23V107.91a6.24,6.24,0,0,1,12.47,0V162.3h-6.24"/><path class="cls-1" d="M189.31,162.3h0V107.91a6.24,6.24,0,0,1,12.47,0V162.3h0c-2.94,0-3.63-3.42-3.63-6.76h0c0,3.44-2.79,6.76-6.23,6.76h-2.6"/><path class="cls-1" d="M130,156.06a6.25,6.25,0,1,1,6.25,6.24,6.24,6.24,0,0,1-6.25-6.24"/><rect class="cls-3" x="247.3" y="72.23" width="2.87" height="104.78"/><path class="cls-1" d="M316.79,129.33a5,5,0,1,1-5,5,5,5,0,0,1,5-5Z"/><path class="cls-1" d="M316.89,147.92a4.15,4.15,0,1,1-4.15,4.15,4.15,4.15,0,0,1,4.15-4.15Z"/><path class="cls-1" d="M316.83,165a3.4,3.4,0,1,1-3.4,3.4,3.4,3.4,0,0,1,3.4-3.4Z"/><path class="cls-1" d="M299.41,129.33a5,5,0,1,1-5,5,5,5,0,0,1,5-5Z"/><path class="cls-1" d="M299.45,147.92a4.15,4.15,0,1,1-4.15,4.15,4.14,4.14,0,0,1,4.15-4.15Z"/><path class="cls-1" d="M299.45,165a3.4,3.4,0,1,1-3.41,3.4,3.4,3.4,0,0,1,3.41-3.4Z"/><path class="cls-1" d="M334.27,147.92a4.15,4.15,0,1,1-4.15,4.15,4.15,4.15,0,0,1,4.15-4.15Z"/><path class="cls-1" d="M334.35,165a3.4,3.4,0,1,1-3.4,3.4,3.4,3.4,0,0,1,3.4-3.4Z"/><path class="cls-1" d="M351.73,147.92a4.15,4.15,0,1,1-4.15,4.15,4.15,4.15,0,0,1,4.15-4.15Z"/><path class="cls-1" d="M351.71,165a3.4,3.4,0,1,1-3.41,3.4,3.4,3.4,0,0,1,3.41-3.4Z"/><path class="cls-1" d="M369.14,147.92a4.15,4.15,0,1,1-4.15,4.15,4.14,4.14,0,0,1,4.15-4.15Z"/><path class="cls-1" d="M369.09,165a3.4,3.4,0,1,1-3.41,3.4,3.4,3.4,0,0,1,3.41-3.4Z"/><path class="cls-1" d="M386.55,147.92a4.15,4.15,0,1,1-4.14,4.15,4.15,4.15,0,0,1,4.14-4.15Z"/><path class="cls-1" d="M386.58,165.06a3.4,3.4,0,1,1-3.4,3.4,3.4,3.4,0,0,1,3.4-3.4Z"/><path class="cls-2" d="M369.1,119.71a5,5,0,1,1,5-5,5,5,0,0,1-5,5Z"/><path class="cls-2" d="M369,101.13A4.15,4.15,0,1,1,373.14,97a4.15,4.15,0,0,1-4.14,4.15Z"/><path class="cls-2" d="M369.06,84.05a3.41,3.41,0,1,1,3.4-3.4,3.4,3.4,0,0,1-3.4,3.4Z"/><path class="cls-2" d="M386.47,119.71a5,5,0,1,1,5-5,5,5,0,0,1-5,5Z"/><path class="cls-2" d="M386.43,101.13A4.15,4.15,0,1,1,390.58,97a4.15,4.15,0,0,1-4.15,4.15Z"/><path class="cls-2" d="M386.44,84.05a3.41,3.41,0,1,1,3.4-3.4,3.4,3.4,0,0,1-3.4,3.4Z"/><path class="cls-2" d="M351.56,119.71a5,5,0,1,1,5-5,5,5,0,0,1-5,5Z"/><path class="cls-2" d="M351.62,101.13A4.15,4.15,0,1,1,355.77,97a4.15,4.15,0,0,1-4.15,4.15Z"/><path class="cls-2" d="M351.54,84.05a3.41,3.41,0,1,1,3.4-3.4,3.41,3.41,0,0,1-3.4,3.4Z"/><path class="cls-2" d="M334.25,119.71a5,5,0,1,1,5-5,5,5,0,0,1-5,5Z"/><path class="cls-2" d="M334.16,101.13A4.15,4.15,0,1,1,338.31,97a4.16,4.16,0,0,1-4.15,4.15Z"/><path class="cls-2" d="M334.18,84.05a3.41,3.41,0,1,1,3.41-3.4,3.4,3.4,0,0,1-3.41,3.4Z"/><path class="cls-2" d="M316.87,119.71a5,5,0,1,1,5-5,5,5,0,0,1-5,5Z"/><path class="cls-2" d="M316.74,101.13A4.15,4.15,0,1,1,320.89,97a4.14,4.14,0,0,1-4.15,4.15Z"/><path class="cls-2" d="M316.8,84.05a3.41,3.41,0,1,1,3.4-3.4,3.4,3.4,0,0,1-3.4,3.4Z"/><path class="cls-2" d="M299.42,109.55a5,5,0,1,1-5,5,5,5,0,0,1,5-5Z"/><path class="cls-2" d="M299.34,101.13A4.15,4.15,0,1,1,303.48,97a4.15,4.15,0,0,1-4.14,4.15Z"/><path class="cls-2" d="M299.31,84a3.41,3.41,0,1,1,3.4-3.41,3.41,3.41,0,0,1-3.4,3.41Z"/><polygon class="cls-3" points="331.74 140.02 338.8 140.02 338.8 138.44 333.54 138.44 333.54 127.46 331.74 127.46 331.74 140.02 331.74 140.02"/><polygon class="cls-4" points="331.74 140.02 338.8 140.02 338.8 138.44 333.54 138.44 333.54 127.46 331.74 127.46 331.74 140.02 331.74 140.02"/><path class="cls-3" d="M357,127.78a6.86,6.86,0,0,0-2.83-.54,6.25,6.25,0,0,0-6.63,6.44c0,4,2.64,6.55,6.62,6.55a7.74,7.74,0,0,0,2.86-.45L357,138a6.29,6.29,0,0,1-2.74.61,4.92,4.92,0,0,1,.1-9.83,4.93,4.93,0,0,1,2.59.71l.14-1.75Z"/><path class="cls-4" d="M357,127.78a6.86,6.86,0,0,0-2.83-.54,6.25,6.25,0,0,0-6.63,6.44c0,4,2.64,6.55,6.62,6.55a7.74,7.74,0,0,0,2.86-.45L357,138a6.29,6.29,0,0,1-2.74.61,4.92,4.92,0,0,1,.1-9.83,4.93,4.93,0,0,1,2.59.71l.14-1.75Z"/><path class="cls-3" d="M372.66,127.69a8.28,8.28,0,0,0-2.68-.45c-2.27,0-4,1.19-4,3.42,0,3.91,5.4,3.13,5.4,5.94a2.25,2.25,0,0,1-2.47,2.05,7.65,7.65,0,0,1-2.61-.61l-.18,1.67a8.4,8.4,0,0,0,2.57.52c2.52,0,4.59-1.06,4.59-3.74,0-4.14-5.39-3.58-5.39-6,0-1.32,1.18-1.68,2.19-1.68a5.54,5.54,0,0,1,2.36.52l.25-1.65Z"/><path class="cls-4" d="M372.66,127.69a8.28,8.28,0,0,0-2.68-.45c-2.27,0-4,1.19-4,3.42,0,3.91,5.4,3.13,5.4,5.94a2.25,2.25,0,0,1-2.47,2.05,7.65,7.65,0,0,1-2.61-.61l-.18,1.67a8.4,8.4,0,0,0,2.57.52c2.52,0,4.59-1.06,4.59-3.74,0-4.14-5.39-3.58-5.39-6,0-1.32,1.18-1.68,2.19-1.68a5.54,5.54,0,0,1,2.36.52l.25-1.65Z"/><path class="cls-3" d="M383.11,140h3.35c2.55,0,4.79-.65,4.79-3.35a3,3,0,0,0-2.92-3v0c1.58-.4,2.59-1.26,2.59-3,0-2.32-1.8-3.16-4.4-3.16h-3.41V140Zm1.8-5.72h1.17c1.55,0,3.26.27,3.26,2.21,0,1.69-1.46,2-3.08,2h-1.35V134.3Zm0-5.37h1.89c1.05,0,2.32.38,2.32,1.87,0,1.86-1.47,2-3.22,2h-1v-3.89Z"/><path class="cls-4" d="M383.11,140h3.35c2.55,0,4.79-.65,4.79-3.35a3,3,0,0,0-2.92-3v0c1.58-.4,2.59-1.26,2.59-3,0-2.32-1.8-3.16-4.4-3.16h-3.41V140Zm1.8-5.72h1.17c1.55,0,3.26.27,3.26,2.21,0,1.69-1.46,2-3.08,2h-1.35V134.3Zm0-5.37h1.89c1.05,0,2.32.38,2.32,1.87,0,1.86-1.47,2-3.22,2h-1v-3.89Z"/></svg>